<svg width="18" height="18" viewBox="0 0 18 18" fill="none" xmlns="http://www.w3.org/2000/svg">
<g clip-path="url(#clip0_16_114)">
<path d="M9.75 2.25V0.75C9.75 0.551088 9.67098 0.360322 9.53033 0.21967C9.38967 0.0790176 9.19891 0 9 0C8.80108 0 8.61032 0.0790176 8.46967 0.21967C8.32901 0.360322 8.25 0.551088 8.25 0.75V2.25C6.8581 2.25159 5.52366 2.80522 4.53944 3.78944C3.55522 4.77367 3.00159 6.1081 3 7.5V12C3 13.5913 3.63214 15.1174 4.75736 16.2426C5.88258 17.3679 7.4087 18 9 18C10.5913 18 12.1174 17.3679 13.2426 16.2426C14.3679 15.1174 15 13.5913 15 12V7.5C14.9984 6.1081 14.4448 4.77367 13.4606 3.78944C12.4763 2.80522 11.1419 2.25159 9.75 2.25ZM13.5 12C13.5 13.1935 13.0259 14.3381 12.182 15.182C11.3381 16.0259 10.1935 16.5 9 16.5C7.80652 16.5 6.66193 16.0259 5.81802 15.182C4.9741 14.3381 4.5 13.1935 4.5 12V7.5C4.50119 6.5058 4.89666 5.55267 5.59966 4.84966C6.30267 4.14666 7.2558 3.75119 8.25 3.75H9.75C10.7442 3.75119 11.6973 4.14666 12.4003 4.84966C13.1033 5.55267 13.4988 6.5058 13.5 7.5V12Z" fill="white"/>
<path d="M9 5.25C8.80109 5.25 8.61032 5.32902 8.46967 5.46967C8.32902 5.61032 8.25 5.80109 8.25 6V7.5C8.25 7.69891 8.32902 7.88968 8.46967 8.03033C8.61032 8.17098 8.80109 8.25 9 8.25C9.19891 8.25 9.38968 8.17098 9.53033 8.03033C9.67098 7.88968 9.75 7.69891 9.75 7.5V6C9.75 5.80109 9.67098 5.61032 9.53033 5.46967C9.38968 5.32902 9.19891 5.25 9 5.25Z" fill="white"/>
</g>
<defs>
<clipPath id="clip0_16_114">
<rect width="18" height="18" fill="white"/>
</clipPath>
</defs>
</svg>
